# xmcd CD database file generated by Grip 2.95
# 
# Track frame offsets:
#       150
#       10327
#       28537
#       38539
#       51316
#       63859
#       80367
#       92604
#       110747
#       123347
#       134945
#       147062
# 
# Disc length: 2114 seconds
# 
# Revision: 3
# Processed by: cddbd v1.4PL0 Copyright (c) Steve Scherf et al.
# Submitted via: Grip 2.95
# 
DISCID=9f08400c
DTITLE=The Jolly Ranchers - 12 Gauge
DYEAR=1900
DGENRE=
TTITLE0=Country Attitude
TTITLE1=Good Enough
TTITLE2=Country Road
TTITLE3=I Walk Alone
TTITLE4=1000 Pretty Women
TTITLE5=Goodbye Friend
TTITLE6=Kiss My Ass
TTITLE7=Gunslinger
TTITLE8=Last Honest Man
TTITLE9=Cowboys Cool
TTITLE10=Gun Control
TTITLE11=Lying
EXTD=
EXTT0=
EXTT1=
EXTT2=
EXTT3=
EXTT4=
EXTT5=
EXTT6=
EXTT7=
EXTT8=
EXTT9=
EXTT10=
EXTT11=
PLAYORDER=
